<svg xmlns="http://www.w3.org/2000/svg" viewBox="0 0 150 150"><g id="Layer_2" data-name="Layer 2"><g id="Layer_1-2" data-name="Layer 1"><circle cx="75" cy="75" r="74" style="fill:none;stroke:#fff;stroke-miterlimit:10;stroke-width:2px"/><path d="M68.35,50.7a20.83,20.83,0,0,0,2.17-.84,5,5,0,0,0,1.49-1,5.9,5.9,0,0,0,1-1.61,14.91,14.91,0,0,0,.81-2.45c.08-.21.19-.31.34-.31s.25.1.34.31a19.09,19.09,0,0,0,.87,2.45,6.08,6.08,0,0,0,1,1.61,4.52,4.52,0,0,0,1.46,1,20,20,0,0,0,2.17.84c.2.08.31.16.31.25s-.11.16-.31.24A14.64,14.64,0,0,0,77.9,52,4.52,4.52,0,0,0,76.44,53a6,6,0,0,0-1,1.65,19.87,19.87,0,0,0-.87,2.54.32.32,0,0,1-.34.25.31.31,0,0,1-.34-.25,11.83,11.83,0,0,0-.75-2.57,5.31,5.31,0,0,0-1.05-1.58,5,5,0,0,0-1.52-1c-.6-.27-1.33-.55-2.2-.84C68.14,51.11,68,51,68,51S68.14,50.78,68.35,50.7Zm3.28,10.35h5V104h-5Z" style="fill:#f2f2f2"/></g></g></svg>